<svg width="1002" height="1024" viewBox="0 0 1002 1024" fill="none" xmlns="http://www.w3.org/2000/svg">
<g clip-path="url(#clip0_10_19)">
<path d="M407.082 202.41V46.6446L492.886 0.285889V489.834L46.3162 245.06L120.419 202.41L391.482 350.758C394.732 351.994 402.402 352.813 407.082 346.199V296.982C407.082 296.363 406.302 294.756 403.182 293.273L225.724 194.992V146.779L297.877 106.761V152.342C297.227 153.579 297.097 156.793 301.778 159.76L393.432 209.827C395.382 212.3 400.842 214.278 407.082 202.41Z" fill="#5490EB"/>
<path fill-rule="evenodd" clip-rule="evenodd" d="M512.572 0V489.739L590.555 447.072V302.377C598.353 287.536 614.599 283.826 621.748 283.826L803.058 330.203L941.478 254.145L721.176 241.159C705.579 238.191 717.277 228.792 725.075 224.464L822.554 170.667L512.572 0ZM606.149 137.277L660.737 166.958C670.095 175.862 664.636 181.798 660.737 183.653L606.149 213.334C595.231 219.271 591.202 210.861 590.552 205.914V142.842C592.112 132.453 601.6 134.803 606.149 137.277Z" fill="#5490EB"/>
<path d="M407.418 973.911V471.187L502.947 521.274V590.715L462.006 571.361V923.824L500.997 944.23V1024L407.418 973.911Z" fill="#9391E1"/>
<path fill-rule="evenodd" clip-rule="evenodd" d="M224.158 371.013V872.77L267.049 895.999V691.941C270.168 686.005 278.746 685.757 282.645 686.376L329.435 712.347C334.114 715.315 335.284 721.004 335.284 723.477V934.054L387.922 962.781V460.057L224.158 371.013ZM268.998 474.898V597.332C268.998 600.301 274.197 604.753 276.796 606.608L323.586 630.724C331.385 632.208 334.634 628.869 335.284 627.014V506.434C335.284 500.498 328.785 495.303 325.536 493.448L284.595 471.188C276.796 468.219 270.948 472.424 268.998 474.898Z" fill="#9391E1"/>
<path d="M37 770.5V267.13L81.8402 292.311V493.449C81.8402 495.304 82.6201 499.385 85.7394 500.869L132.529 526.84C135.778 528.077 143.447 528.853 148.126 522.064V330.202L204.663 359.883V862.608L146.176 830.274V610.318L97.4368 584.347C92.8878 581.874 83.01 579.153 79.8906 588.057V793.97L37 770.5Z" fill="#9391E1"/>
<path d="M501 1024V944.232L543.89 923.826V883.015L590.68 858.899V975.768L501 1024Z" fill="#5452DD"/>
<path d="M502.951 590.977V521.275L590.682 476.753V586.202L543.892 612.173V586.202V571.362L502.951 590.977Z" fill="#5452DD"/>
<path d="M608.228 965.65V465.623L660.867 437.797V508.29C662.816 512.618 669.055 518.678 678.413 508.29L715.455 411.826C715.455 409.971 718.184 405.89 721.304 404.406L775.892 374.725L686.211 602.898C684.262 606.609 680.752 614.4 682.312 615.884L779.791 871.884L733.001 897.855L676.463 751.304C673.214 747.594 665.156 742.771 658.917 753.159V938.072L608.228 965.65Z" fill="#5452DD"/>
<path d="M801.236 642.7V359.884L965 270.841V337.624L871.421 387.71C864.922 390.802 851.925 398.47 851.925 404.406V521.276C851.275 525.604 852.705 533.519 863.622 530.551L965 476.754V769.855L801.236 858.898V782.841L896.765 730.899C900.014 730.28 906.513 727.559 906.513 721.623V608.464C906.513 601.662 903.783 588.8 892.866 591.768L801.236 642.7Z" fill="#5452DD"/>
</g>
<defs>
<clipPath id="clip0_10_19">
<rect width="1001.43" height="1024" fill="white"/>
</clipPath>
</defs>
</svg>
