<svg width="26" height="26" viewBox="0 0 26 26" fill="none" xmlns="http://www.w3.org/2000/svg">
<path d="M16.9284 8.04839C16.2851 3.90746 14.7679 1 13.0022 1C11.2365 1 9.7193 3.90746 9.07602 8.04839H16.9284ZM8.74329 12.5C8.74329 13.5294 8.79653 14.5171 8.8897 15.4677H17.1103C17.2035 14.5171 17.2567 13.5294 17.2567 12.5C17.2567 11.4706 17.2035 10.4829 17.1103 9.53226H8.8897C8.79653 10.4829 8.74329 11.4706 8.74329 12.5ZM23.1482 8.04839C21.8794 4.8998 19.3107 2.46532 16.1387 1.48226C17.2212 3.0496 17.9665 5.40988 18.3569 8.04839H23.1482ZM9.86126 1.48226C6.69369 2.46532 4.12059 4.8998 2.85622 8.04839H7.64751C8.03347 5.40988 8.77879 3.0496 9.86126 1.48226V1.48226ZM23.6229 9.53226H18.5344C18.6275 10.506 18.6808 11.503 18.6808 12.5C18.6808 13.497 18.6275 14.494 18.5344 15.4677H23.6185C23.8625 14.5171 24 13.5294 24 12.5C24 11.4706 23.8625 10.4829 23.6229 9.53226ZM7.32365 12.5C7.32365 11.503 7.37689 10.506 7.47005 9.53226H2.38153C2.14196 10.4829 2 11.4706 2 12.5C2 13.5294 2.14196 14.5171 2.38153 15.4677H7.46562C7.37689 14.494 7.32365 13.497 7.32365 12.5V12.5ZM9.07602 16.9516C9.7193 21.0925 11.2365 24 13.0022 24C14.7679 24 16.2851 21.0925 16.9284 16.9516H9.07602ZM16.1432 23.5177C19.3107 22.5347 21.8838 20.1002 23.1527 16.9516H18.3614C17.971 19.5901 17.2256 21.9504 16.1432 23.5177ZM2.85622 16.9516C4.12503 20.1002 6.69369 22.5347 9.8657 23.5177C8.78322 21.9504 8.03791 19.5901 7.64751 16.9516H2.85622V16.9516Z" fill="url(#paint0_linear_283_15)"/>
<defs>
<linearGradient id="paint0_linear_283_15" x1="4.59799" y1="1.00002" x2="22.1079" y2="1.62355" gradientUnits="userSpaceOnUse">
<stop stop-color="#10B981"/>
<stop offset="1" stop-color="#1D4ED8"/>
</linearGradient>
</defs>
</svg>
