<svg width="25" height="25" viewBox="0 0 25 25" fill="none" xmlns="http://www.w3.org/2000/svg">
<g clip-path="url(#clip0_283_17)">
<path d="M23.7042 2.42203C23.4612 1.8795 22.7667 1.8578 22.4759 2.36995C21.1304 4.70936 18.7216 6.16769 15.9698 6.16769H12.4976C7.89693 6.16769 4.16429 9.90033 4.16429 14.501C4.16429 14.8048 4.19901 15.0956 4.2294 15.3908C6.99849 13.4073 10.9959 11.7232 16.6643 11.7232C17.0462 11.7232 17.3587 12.0357 17.3587 12.4177C17.3587 12.7996 17.0462 13.1121 16.6643 13.1121C5.75283 13.1121 1.1261 19.8005 0.101792 22.3135C-0.184666 23.021 0.153875 23.8283 0.86134 24.1191C1.57315 24.4142 2.38044 24.0713 2.67558 23.3682C2.74068 23.212 3.58269 21.2892 5.79624 19.4359C7.20249 21.3413 9.8761 23.1599 13.3874 22.7866C20.2016 22.2918 24.9976 16.1807 24.9976 8.69807C24.9976 6.51926 24.5289 4.26231 23.7042 2.42203Z" fill="url(#paint0_linear_283_17)"/>
</g>
<defs>
<linearGradient id="paint0_linear_283_17" x1="21.4618" y1="28.325" x2="2.09766" y2="27.4994" gradientUnits="userSpaceOnUse">
<stop stop-color="#F59E0B"/>
<stop offset="1" stop-color="#C2410C"/>
</linearGradient>
<clipPath id="clip0_283_17">
<rect width="25" height="25" fill="white"/>
</clipPath>
</defs>
</svg>
