<svg width="26" height="26" viewBox="0 0 26 26" fill="none" xmlns="http://www.w3.org/2000/svg">
<path d="M23.456 18.9574L18.4612 13.9629C17.4759 12.9776 16.0044 12.7857 14.8186 13.37L10.2717 8.82329V6.1746L4.81198 2.08L2.08213 4.80973L6.17691 10.2692H8.82571L13.3726 14.8159C12.7925 16.0016 12.9802 17.4731 13.9655 18.4584L18.9603 23.453C19.583 24.0757 20.5896 24.0757 21.2081 23.453L23.456 21.2052C24.0745 20.5825 24.0745 19.5759 23.456 18.9574ZM16.2304 11.6767C17.4375 11.6767 18.5721 12.1459 19.4252 12.9989L20.2527 13.8264C20.9266 13.5321 21.5664 13.1226 22.1209 12.5681C23.7034 10.9858 24.2408 8.75932 23.7375 6.73761C23.6437 6.35374 23.1617 6.22152 22.8802 6.50302L19.7067 9.67634L16.8105 9.19437L16.3285 6.29829L19.502 3.12498C19.7835 2.84347 19.647 2.3615 19.2589 2.2634C17.2371 1.76437 15.0105 2.30179 13.4323 3.87992C12.2167 5.0955 11.6451 6.69922 11.675 8.29867L15.1769 11.8004C15.5224 11.7194 15.8807 11.6767 16.2304 11.6767ZM11.7987 15.1742L9.38021 12.7558L2.87976 19.2603C1.81342 20.3266 1.81342 22.054 2.87976 23.1203C3.94611 24.1866 5.67359 24.1866 6.73994 23.1203L12.012 17.8485C11.6878 16.9997 11.5897 16.0741 11.7987 15.1742ZM4.81198 22.2118C4.24895 22.2118 3.78829 21.7511 3.78829 21.1881C3.78829 20.6209 4.24469 20.1645 4.81198 20.1645C5.37928 20.1645 5.83568 20.6209 5.83568 21.1881C5.83568 21.7511 5.37928 22.2118 4.81198 22.2118Z" fill="url(#paint0_linear_283_19)"/>
<defs>
<linearGradient id="paint0_linear_283_19" x1="21.6164" y1="31.2" x2="3.22645" y2="30.3334" gradientUnits="userSpaceOnUse">
<stop stop-color="#EF4444"/>
<stop offset="1" stop-color="#BE185D"/>
</linearGradient>
</defs>
</svg>
