<svg width="700" height="700" viewBox="0 0 700 700" fill="none" xmlns="http://www.w3.org/2000/svg">
<path fill-rule="evenodd" clip-rule="evenodd" d="M359.137 46H438V85.1036C502.863 100.623 559.245 134.812 599.574 180.871L517.821 239.844C481.733 202.024 426.687 175.868 359.072 175.868C235.042 175.868 153.301 263.88 153.301 350.464C153.301 437.047 235.042 525.059 359.072 525.059C419.503 525.059 469.894 504.166 505.684 472.725L588.229 532.271C548.964 572.154 496.99 601.709 438 615.823V653H359.137V625.059H359.072C352.959 625.059 346.888 624.898 340.863 624.58V653H262V610.932C140.712 574.494 53.3005 471.646 53.3005 350.464C53.3005 229.281 140.712 126.433 262 89.9946L262 46H341.825V76.2977C347.534 76.0127 353.284 75.8683 359.072 75.8683L359.137 75.8683V46Z" fill="#AFAFAF" fill-opacity="0.13"/>
</svg>
