<svg width="700" height="700" viewBox="0 0 700 700" fill="none" xmlns="http://www.w3.org/2000/svg">
<path fill-rule="evenodd" clip-rule="evenodd" d="M359 35H441V75.5853C508.443 91.6925 567.067 127.177 609 174.981L527.183 233.894C488.898 193.715 430.472 166 358.933 166C228.007 166 141 258.831 141 351C141 443.169 228.007 536 358.933 536C423.035 536 476.609 513.747 514.598 480.215L597.204 539.697C556.378 581.091 502.336 611.766 441 626.415V665H359V636H358.933C352.577 636 346.264 635.833 340 635.503V665H258V621.338C131.888 583.519 41 476.774 41 351C41 225.226 131.888 118.481 258 80.6616L258 35H341V66.4457C346.936 66.1499 352.915 66 358.933 66L359 66V35Z" fill="#AFAFAF" fill-opacity="0.13"/>
</svg>
