<svg width="700" height="700" viewBox="0 0 700 700" fill="none" xmlns="http://www.w3.org/2000/svg">
<path fill-rule="evenodd" clip-rule="evenodd" d="M603.653 292.253C607.893 310.869 610.131 330.246 610.131 350.146C610.131 369.924 607.92 389.186 603.731 407.697L627.68 426.417C630.359 428.626 632.165 431.714 632.773 435.13C633.382 438.546 632.755 442.066 631.003 445.062L572.806 545.377C571.037 548.347 568.276 550.598 565.008 551.736C561.74 552.874 558.175 552.824 554.94 551.596L527.135 540.443C498.858 566.706 464.719 586.742 426.899 598.372L422.74 627.854C422.135 631.289 420.353 634.407 417.701 636.676C415.048 638.944 411.689 640.223 408.197 640.293H291.803C288.375 640.226 285.07 639.001 282.429 636.818C279.787 634.634 277.965 631.621 277.26 628.271L272.997 598.045C235.6 586.369 201.836 566.464 173.824 540.45L145.06 551.987C141.826 553.216 138.263 553.268 134.995 552.132C131.727 550.997 128.965 548.748 127.194 545.781L68.9971 445.478C67.2453 442.482 66.6178 438.962 67.2265 435.546C67.8353 432.131 69.6407 429.042 72.3201 426.833L97.1585 407.418C93.0106 388.992 90.8215 369.825 90.8215 350.146C90.8215 330.594 92.9827 311.546 97.0791 293.229L72.3201 273.876C69.6407 271.667 67.8353 268.579 67.2265 265.163C66.6178 261.747 67.2453 258.227 68.9971 255.231L127.194 154.916C128.963 151.946 131.725 149.694 134.992 148.557C138.26 147.419 141.825 147.469 145.06 148.697L173.531 160.116C201.615 133.954 235.506 113.943 273.058 102.229L277.26 72.4385C277.865 69.004 279.647 65.886 282.299 63.6173C284.952 61.3486 288.311 60.07 291.803 60H408.197C411.625 60.0666 414.93 61.2917 417.571 63.4752C420.213 65.6586 422.035 68.6716 422.74 72.0222L426.96 101.939C464.628 113.533 498.643 133.466 526.848 159.583L554.94 148.305C558.174 147.077 561.737 147.025 565.005 148.16C568.273 149.296 571.035 151.545 572.806 154.512L631.003 254.827C632.755 257.823 633.382 261.344 632.773 264.759C632.165 268.175 630.359 271.263 627.68 273.472L603.653 292.253Z" fill="#AFAFAF" fill-opacity="0.13"/>
</svg>
