<svg width="700" height="700" viewBox="0 0 700 700" fill="none" xmlns="http://www.w3.org/2000/svg">
<path fill-rule="evenodd" clip-rule="evenodd" d="M618.046 288.974C622.517 308.609 624.879 329.048 624.879 350.038C624.879 370.899 622.546 391.215 618.128 410.74L643.389 430.486C646.215 432.816 648.119 436.073 648.761 439.676C649.403 443.279 648.741 446.992 646.894 450.152L585.509 555.961C583.643 559.094 580.731 561.469 577.284 562.669C573.837 563.868 570.077 563.816 566.665 562.521L537.337 550.758C507.511 578.458 471.503 599.592 431.61 611.859L427.224 642.956C426.585 646.579 424.707 649.867 421.909 652.26C419.111 654.653 415.568 656.002 411.884 656.076H289.116C285.499 656.005 282.014 654.713 279.228 652.41C276.442 650.107 274.52 646.929 273.776 643.395L269.279 611.514C229.834 599.198 194.221 578.203 164.675 550.764L134.335 562.934C130.925 564.23 127.166 564.284 123.719 563.087C120.272 561.889 117.359 559.517 115.491 556.387L54.1065 450.591C52.2588 447.431 51.5968 443.718 52.2389 440.115C52.881 436.512 54.7853 433.255 57.6115 430.925L83.8103 410.446C79.4352 391.011 77.1262 370.794 77.1262 350.038C77.1262 329.415 79.4058 309.324 83.7265 290.003L57.6115 269.59C54.7853 267.26 52.881 264.003 52.2389 260.4C51.5968 256.797 52.2588 253.084 54.1065 249.924L115.491 144.114C117.357 140.982 120.269 138.607 123.716 137.407C127.163 136.207 130.923 136.259 134.335 137.554L164.365 149.6C193.988 122.005 229.735 100.898 269.344 88.542L273.776 57.1197C274.415 53.4971 276.293 50.2084 279.091 47.8154C281.889 45.4225 285.432 44.0738 289.116 44H411.884C415.501 44.0703 418.986 45.3624 421.772 47.6655C424.558 49.9686 426.48 53.1465 427.224 56.6806L431.675 88.2365C471.407 100.465 507.284 121.49 537.034 149.038L566.665 137.142C570.075 135.846 573.834 135.792 577.281 136.989C580.728 138.186 583.641 140.559 585.509 143.689L646.894 249.498C648.741 252.658 649.403 256.371 648.761 259.974C648.119 263.577 646.215 266.834 643.389 269.164L618.046 288.974Z" fill="#AFAFAF" fill-opacity="0.13"/>
</svg>
