<svg width="700" height="700" viewBox="0 0 700 700" fill="none" xmlns="http://www.w3.org/2000/svg">
<path d="M455.031 235.113C437.751 128.709 396.992 54 349.56 54C302.127 54 261.368 128.709 244.088 235.113H455.031ZM235.149 349.5C235.149 375.952 236.58 401.332 239.082 425.758H459.918C462.42 401.332 463.851 375.952 463.851 349.5C463.851 323.048 462.42 297.668 459.918 273.242H239.082C236.58 297.668 235.149 323.048 235.149 349.5ZM622.118 235.113C588.033 154.208 519.03 91.6524 433.818 66.3919C462.897 106.666 482.919 167.315 493.407 235.113H622.118ZM265.182 66.3919C180.09 91.6524 110.967 154.208 77.0012 235.113H205.713C216.081 167.315 236.103 106.666 265.182 66.3919V66.3919ZM634.87 273.242H498.174C500.676 298.264 502.106 323.882 502.106 349.5C502.106 375.118 500.676 400.736 498.174 425.758H634.751C641.306 401.332 645 375.952 645 349.5C645 323.048 641.306 297.668 634.87 273.242ZM197.013 349.5C197.013 323.882 198.443 298.264 200.946 273.242H64.2492C57.8137 297.668 54 323.048 54 349.5C54 375.952 57.8137 401.332 64.2492 425.758H200.826C198.443 400.736 197.013 375.118 197.013 349.5V349.5ZM244.088 463.887C261.368 570.291 302.127 645 349.56 645C396.992 645 437.751 570.291 455.031 463.887H244.088ZM433.937 632.608C519.03 607.348 588.152 544.792 622.237 463.887H493.526C483.038 531.685 463.016 592.334 433.937 632.608ZM77.0012 463.887C111.086 544.792 180.09 607.348 265.301 632.608C236.222 592.334 216.2 531.685 205.713 463.887H77.0012V463.887Z" fill="#AFAFAF" fill-opacity="0.13"/>
</svg>
