<svg width="700" height="700" viewBox="0 0 700 700" fill="none" xmlns="http://www.w3.org/2000/svg">
<path d="M453.96 236.274C436.855 130.951 396.51 57 349.559 57C302.608 57 262.263 130.951 245.158 236.274H453.96ZM236.31 349.5C236.31 375.683 237.726 400.805 240.203 424.984H458.797C461.274 400.805 462.69 375.683 462.69 349.5C462.69 323.317 461.274 298.195 458.797 274.016H240.203C237.726 298.195 236.31 323.317 236.31 349.5ZM619.35 236.274C585.612 156.191 517.309 94.2702 432.962 69.2661C461.746 109.131 481.564 169.164 491.946 236.274H619.35ZM266.038 69.2661C181.809 94.2702 113.388 156.191 79.7677 236.274H207.172C217.436 169.164 237.254 109.131 266.038 69.2661V69.2661ZM631.973 274.016H496.664C499.142 298.784 500.557 324.142 500.557 349.5C500.557 374.858 499.142 400.216 496.664 424.984H631.855C638.343 400.805 642 375.683 642 349.5C642 323.317 638.343 298.195 631.973 274.016ZM198.561 349.5C198.561 324.142 199.976 298.784 202.454 274.016H67.1452C60.775 298.195 57 323.317 57 349.5C57 375.683 60.775 400.805 67.1452 424.984H202.336C199.976 400.216 198.561 374.858 198.561 349.5V349.5ZM245.158 462.726C262.263 568.049 302.608 642 349.559 642C396.51 642 436.855 568.049 453.96 462.726H245.158ZM433.08 629.734C517.309 604.73 585.73 542.809 619.468 462.726H492.064C481.682 529.836 461.864 589.869 433.08 629.734ZM79.7677 462.726C113.506 542.809 181.809 604.73 266.156 629.734C237.372 589.869 217.554 529.836 207.172 462.726H79.7677V462.726Z" fill="#AFAFAF" fill-opacity="0.13"/>
</svg>
