<svg width="700" height="700" viewBox="0 0 700 700" fill="none" xmlns="http://www.w3.org/2000/svg">
<path d="M611 0V348.593C610.993 394.306 598.999 439.218 576.212 478.85C553.426 518.481 520.644 551.447 481.137 574.459C441.63 597.47 396.779 609.723 351.057 609.995C305.335 610.267 260.341 598.549 220.562 576.01C180.784 553.47 147.612 520.897 124.355 481.539C101.099 442.181 88.5699 397.415 88.019 351.705C87.4681 305.996 98.9143 260.941 121.216 221.034C143.517 181.128 175.895 147.765 215.118 124.273L407.611 13.1594V93.6262L611 0ZM349.5 203.346C310.97 203.346 274.018 218.649 246.773 245.888C219.528 273.127 204.222 310.071 204.222 348.593C204.222 387.115 219.528 424.059 246.773 451.298C274.018 478.537 310.97 493.84 349.5 493.84C388.03 493.84 424.982 478.537 452.227 451.298C479.472 424.059 494.778 387.115 494.778 348.593C494.778 310.071 479.472 273.127 452.227 245.888C424.982 218.649 388.03 203.346 349.5 203.346V203.346Z" fill="#AFAFAF" fill-opacity="0.13"/>
</svg>
