<svg width="700" height="700" viewBox="0 0 700 700" fill="none" xmlns="http://www.w3.org/2000/svg">
<path d="M611 0V353.736C610.993 400.123 598.815 445.698 575.68 485.915C552.545 526.131 519.262 559.583 479.15 582.934C439.039 606.285 393.502 618.719 347.08 618.995C300.659 619.271 254.977 607.38 214.59 584.508C174.203 561.636 140.524 528.582 116.912 488.644C93.299 448.705 80.5786 403.279 80.0193 356.895C79.4599 310.511 91.0812 264.791 113.724 224.295C136.366 183.8 169.239 149.945 209.062 126.107L404.5 13.3535V95.0076L611 0ZM345.5 206.346C306.381 206.346 268.863 221.875 241.202 249.516C213.54 277.157 198 314.646 198 353.736C198 392.826 213.54 430.315 241.202 457.956C268.863 485.597 306.381 501.126 345.5 501.126C384.619 501.126 422.137 485.597 449.798 457.956C477.46 430.315 493 392.826 493 353.736C493 314.646 477.46 277.157 449.798 249.516C422.137 221.875 384.619 206.346 345.5 206.346V206.346Z" fill="#AFAFAF" fill-opacity="0.13"/>
</svg>
