<svg width="700" height="700" viewBox="0 0 700 700" fill="none" xmlns="http://www.w3.org/2000/svg">
<g clip-path="url(#clip0_270_64)">
<path fill-rule="evenodd" clip-rule="evenodd" d="M638.068 350C638.068 426.95 608.321 496.852 559.857 548.515C563.464 549.571 567.413 550.883 571.664 552.295L571.665 552.296L571.667 552.296L571.67 552.297L571.68 552.301L571.683 552.302L571.684 552.302C590.902 558.688 616.271 567.118 643.927 563.199C643.703 561.242 643.139 558.389 641.811 554.561C636.084 538.056 622.754 521.735 612.784 516.213C617.466 509.322 622.473 500.965 627.322 491.756C632.12 482.643 636.142 473.873 639.163 466.17C664.298 479.901 685.41 509.306 694.574 535.718C699.226 549.125 702.45 566.354 697.563 582.849C694.967 591.609 690.064 600.089 682.226 606.801C674.471 613.442 665.241 617.162 655.721 618.772C610.703 626.388 565.086 610.344 548.465 604.499L548.46 604.497L548.457 604.496C546.358 603.758 544.723 603.182 543.61 602.838C432.866 560.023 351.728 520.277 280.014 470.772C207.765 420.899 143.98 360.362 68.8342 274.866C59.1747 261.886 49.4581 248.494 39.6245 234.676C38.9541 233.926 38.4012 233.245 37.9988 232.736C36.8517 231.283 35.7361 229.699 34.7455 228.228C32.7073 225.201 30.3193 221.336 27.8064 216.96C22.7785 208.205 16.7019 196.449 11.4602 183.712C6.32874 171.242 1.39737 156.405 -0.338861 141.864C-1.96098 128.279 -1.55633 108.268 12.2003 92.709C24.9509 78.2876 42.4703 74.3186 56.1779 73.753C70.2238 73.1735 84.7375 75.8969 97.3395 79.5006C110.165 83.1683 122.486 88.1759 132.599 93.2622C141.101 97.5379 151.159 103.391 157.864 110.203C151.547 115.328 144.562 121.657 137.486 128.789C131.117 135.208 125.397 141.549 120.616 147.388L117.922 149.92C118.18 150.202 118.092 150.142 117.581 149.793C116.49 149.046 113.466 146.979 107.755 144.107C100.513 140.464 91.4208 136.768 82.1641 134.121C72.6835 131.41 64.444 130.208 58.4511 130.455C56.9158 130.518 55.7643 130.661 54.9225 130.816C54.9126 131.818 54.9721 133.2 55.1919 135.04C56.0472 142.203 58.853 151.58 63.0786 161.848C67.1941 171.848 72.0945 181.351 76.138 188.392C77.3574 190.515 78.4491 192.328 79.3657 193.792L79.6208 193.921L83.6471 199.588C89.0799 207.235 94.4576 214.724 99.7906 222.059C146.232 127.197 242.706 62 354.19 62C510.972 62 638.068 190.942 638.068 350ZM52.9965 131.362C52.9666 131.381 52.9498 131.388 52.9498 131.388C52.9498 131.388 52.9642 131.379 52.9965 131.362Z" fill="#AFAFAF" fill-opacity="0.13"/>
<path d="M70.4996 360.595C130.207 424.407 186.068 474.562 248.547 517.69C306.058 557.39 368.566 590.716 443.896 623.325C415.7 632.845 385.538 638 354.19 638C200.904 638 75.9942 514.745 70.4996 360.595Z" fill="#AFAFAF" fill-opacity="0.13"/>
</g>
<defs>
<clipPath id="clip0_270_64">
<rect width="700" height="700" fill="white"/>
</clipPath>
</defs>
</svg>
