<svg width="700" height="700" viewBox="0 0 700 700" fill="none" xmlns="http://www.w3.org/2000/svg">
<path d="M625.004 287.487C612.033 226.023 577.635 170.08 528.134 129.968C477.513 89.1765 414.605 66.9678 349.775 67C273.353 67 201.974 96.6519 148.609 150.498C97.0386 202.6 68.7755 271.392 69.0013 344.151C69.0031 397.495 84.5531 449.665 113.723 494.191L119.18 501.835L89.0727 633L233.085 596.918C233.085 596.918 235.97 597.89 238.103 598.712C240.235 599.533 258.588 606.62 278.057 612.103C294.24 616.652 327.91 623.474 354.291 623.474C429.12 623.474 498.993 594.29 551.028 541.278C602.599 488.683 631 418.754 631 344.302C631.004 325.203 628.994 306.158 625.004 287.487V287.487Z" fill="#AFAFAF" fill-opacity="0.13"/>
</svg>
