<svg width="8594" height="2702" viewBox="0 0 8594 2702" fill="none" xmlns="http://www.w3.org/2000/svg">
<path fill-rule="evenodd" clip-rule="evenodd" d="M2432.91 0V2680.12L2838.99 2446.62V1654.77C2842.69 1611.8 2955.72 1564 2992.95 1564C2992.95 1564 3006.61 1564 3033.93 1577.66C3061.24 1591.32 3662.26 2680.12 3662.26 2680.12H8181.22L8593.33 2267.45H4072.04L3389.07 1359.11L4047.08 933.981L2432.91 0ZM2920.2 751.25L3204.45 913.681C3253.18 962.411 3224.76 994.897 3204.45 1005.05L2920.2 1167.48C2863.35 1199.97 2842.37 1153.94 2838.98 1126.87V781.706C2847.11 724.855 2896.51 737.714 2920.2 751.25Z" fill="url(#paint0_linear_1_224)"/>
<path d="M1883.51 1132.82V282.425L2331.48 29.3315V2702L0 1365.67L386.883 1132.82L1802.06 1942.72C1819.03 1949.47 1859.07 1953.94 1883.51 1917.83V1649.13C1883.51 1645.76 1879.43 1636.98 1863.14 1628.88L936.663 1092.32V829.107L1313.36 610.631V859.479C1309.97 866.228 1309.29 883.775 1333.73 899.973L1812.24 1173.31C1822.42 1186.81 1850.93 1197.61 1883.51 1132.82Z" fill="url(#paint1_linear_1_224)"/>
<path d="M4417.21 399.641H4172.58V2156.51H4417.21V1403.39C4417.21 1401.73 4418.55 1400.39 4420.21 1400.39H4658.84C4660.49 1400.39 4661.84 1401.73 4661.84 1403.39V2156.51H4906.46V399.641H4661.84V1152.76C4661.84 1154.42 4660.49 1155.76 4658.84 1155.76H4420.21C4418.55 1155.76 4417.21 1154.42 4417.21 1152.76V399.641Z" fill="url(#paint2_linear_1_224)"/>
<path d="M6485.43 399.624H5751.55V2156.49H6485.43V1911.87V1667.24H6240.8V1908.87C6240.8 1910.52 6239.46 1911.87 6237.8 1911.87H5999.17C5997.52 1911.87 5996.17 1910.52 5996.17 1908.87V647.251C5996.17 645.594 5997.52 644.251 5999.17 644.251H6237.8C6239.46 644.251 6240.8 645.594 6240.8 647.251V888.879H6485.43V644.251V399.624Z" fill="url(#paint3_linear_1_224)"/>
<path d="M6785.65 399.624H6541.02V2156.49H6785.65V1419.39C6785.65 1415.97 6790.45 1415.22 6791.51 1418.47L7030.28 2156.49H7274.91L6935.76 1155.74L7274.91 399.624H7030.28L6791.27 828.749C6789.77 831.452 6785.65 830.383 6785.65 827.289V399.624Z" fill="url(#paint4_linear_1_224)"/>
<path d="M8064.38 399.624H7330.5V1387.86H7816.75C7818.41 1387.86 7819.75 1389.21 7819.75 1390.86V1908.87C7819.75 1910.52 7818.41 1911.87 7816.75 1911.87H7330.5V2156.49H8064.38V1150.19H7578.13C7576.47 1150.19 7575.13 1148.84 7575.13 1147.19V647.251C7575.13 645.594 7576.47 644.251 7578.13 644.251H8064.38V399.624Z" fill="url(#paint5_linear_1_224)"/>
<path fill-rule="evenodd" clip-rule="evenodd" d="M4962.07 399.624H5695.96V2156.49H5451.33V1403.37C5451.33 1401.72 5449.98 1400.37 5448.33 1400.37H5209.7C5208.04 1400.37 5206.7 1401.72 5206.7 1403.37V2156.49H4962.07V399.624ZM5209.68 644.258C5208.02 644.258 5206.68 645.601 5206.68 647.258V1152.75C5206.68 1154.41 5208.02 1155.75 5209.68 1155.75H5448.31C5449.96 1155.75 5451.31 1154.41 5451.31 1152.75V647.258C5451.31 645.601 5449.96 644.258 5448.31 644.258H5209.68Z" fill="url(#paint6_linear_1_224)"/>
<defs>
<linearGradient id="paint0_linear_1_224" x1="5513.12" y1="0" x2="5513.12" y2="2680.12" gradientUnits="userSpaceOnUse">
<stop stop-color="#A227AC"/>
<stop offset="1" stop-color="#5452DD"/>
</linearGradient>
<linearGradient id="paint1_linear_1_224" x1="1165.74" y1="29.3315" x2="1165.74" y2="2702" gradientUnits="userSpaceOnUse">
<stop stop-color="#A227AC"/>
<stop offset="1" stop-color="#5452DD"/>
</linearGradient>
<linearGradient id="paint2_linear_1_224" x1="4539.52" y1="399.641" x2="4539.52" y2="2156.51" gradientUnits="userSpaceOnUse">
<stop stop-color="#A227AC"/>
<stop offset="1" stop-color="#5452DD"/>
</linearGradient>
<linearGradient id="paint3_linear_1_224" x1="6118.49" y1="399.624" x2="6118.49" y2="2156.49" gradientUnits="userSpaceOnUse">
<stop stop-color="#A227AC"/>
<stop offset="1" stop-color="#5452DD"/>
</linearGradient>
<linearGradient id="paint4_linear_1_224" x1="6907.97" y1="399.624" x2="6907.97" y2="2156.49" gradientUnits="userSpaceOnUse">
<stop stop-color="#A227AC"/>
<stop offset="1" stop-color="#5452DD"/>
</linearGradient>
<linearGradient id="paint5_linear_1_224" x1="7697.44" y1="399.624" x2="7697.44" y2="2156.49" gradientUnits="userSpaceOnUse">
<stop stop-color="#A227AC"/>
<stop offset="1" stop-color="#5452DD"/>
</linearGradient>
<linearGradient id="paint6_linear_1_224" x1="5329.01" y1="399.624" x2="5329.01" y2="2156.49" gradientUnits="userSpaceOnUse">
<stop stop-color="#A227AC"/>
<stop offset="1" stop-color="#5452DD"/>
</linearGradient>
</defs>
</svg>
