<svg width="1002" height="1024" viewBox="0 0 353 391" fill="none" xmlns="http://www.w3.org/2000/svg">
<rect width="178.279" height="178.279" transform="matrix(0.871943 0.489608 -0.871943 0.489608 175.898 42.0369)" fill="url(#paint0_linear_38_366)"/>
<path fill-rule="evenodd" clip-rule="evenodd" d="M176.185 216.375L20.8281 129.14L20.8281 303.713L176.093 390.897V391L176.185 390.948L176.277 391V390.897L331.542 303.713V129.14L176.185 216.375Z" fill="url(#paint1_linear_38_366)"/>
<path fill-rule="evenodd" clip-rule="evenodd" d="M320.348 131.675C319.489 132.08 318.942 132.943 318.942 133.892V181.139C318.942 182.934 320.806 184.12 322.431 183.361L352.077 169.512C352.128 169.488 352.185 169.531 352.175 169.587L352.157 169.696C352.155 169.708 352.167 169.717 352.178 169.712C352.187 169.707 352.199 169.714 352.199 169.725L351.661 270.781C351.657 271.581 351.213 272.315 350.505 272.689L348.653 273.669C348.624 273.684 348.613 273.719 348.628 273.748C348.643 273.776 348.632 273.811 348.604 273.827L298.284 300.607C296.651 301.476 294.68 300.292 294.68 298.442L294.68 278.007C294.68 277.083 295.2 276.237 296.024 275.819L324.079 261.612C324.898 261.198 325.416 260.361 325.423 259.444L325.813 210.422C325.827 208.641 323.998 207.44 322.37 208.16L318.961 209.667C318.949 209.673 318.942 209.684 318.942 209.698C318.942 209.711 318.934 209.723 318.921 209.728L316.895 210.581L297.305 219.245C295.684 219.962 293.862 218.775 293.862 217.003L293.862 196.708C293.862 196.708 293.862 196.707 293.862 196.707C293.862 196.707 293.862 196.707 293.862 196.707V170.805V121.334C293.862 121.334 293.862 121.334 293.862 121.334C293.862 121.334 293.863 121.334 293.863 121.334L293.863 119.431C293.863 118.492 294.398 117.636 295.242 117.226L348.638 91.2536C350.267 90.4614 352.163 91.6475 352.163 93.4585V115.114C352.163 116.063 351.615 116.927 350.757 117.332L320.348 131.675Z" fill="#F5F5F5"/>
<path fill-rule="evenodd" clip-rule="evenodd" d="M286.419 127.343C287.212 125.237 284.986 123.263 282.99 124.305L260.292 136.15C259.79 136.412 259.394 136.84 259.171 137.361L247.829 163.936C246.782 166.39 243.122 165.642 243.122 162.973V150.323C243.122 148.476 241.157 147.292 239.524 148.155L219.349 158.821C218.546 159.246 218.043 160.08 218.043 160.989V338.106C218.043 339.953 220.008 341.137 221.641 340.274L241.816 329.608C242.62 329.183 243.122 328.349 243.122 327.441V283.693C243.122 281.163 246.49 280.291 247.718 282.503L265.705 314.904C266.354 316.073 267.821 316.507 269.001 315.879L288.498 305.502C289.769 304.826 290.187 303.205 289.4 301.999L246.482 236.155C246.056 235.5 245.966 234.682 246.242 233.951L286.419 127.343Z" fill="#F5F5F5"/>
<path fill-rule="evenodd" clip-rule="evenodd" d="M163.015 173.924C163.015 173.894 162.998 173.866 162.971 173.851L141.517 162.72C139.884 161.873 137.936 163.058 137.936 164.896V342.282C137.936 343.197 138.446 344.036 139.258 344.458L162.971 356.761C162.991 356.772 163.015 356.757 163.015 356.735C163.015 356.712 163.039 356.698 163.059 356.708L173.565 362.139C174.689 362.72 176.03 361.904 176.03 360.638C176.065 361.717 177.212 362.393 178.173 361.901L188.531 356.594C188.58 356.568 188.639 356.604 188.639 356.66C188.639 356.716 188.699 356.752 188.749 356.726L203.765 348.788L204.445 348.439C204.448 348.438 204.451 348.434 204.451 348.431C204.451 348.427 204.453 348.424 204.456 348.422L212.412 344.216C213.216 343.792 213.718 342.957 213.718 342.049V311.519C213.718 309.728 211.861 308.541 210.236 309.294L190.06 318.64C189.194 319.042 188.639 319.91 188.639 320.865V329.21C188.639 330.137 188.116 330.985 187.288 331.401L176.29 336.923C176.17 336.983 176.03 336.897 176.03 336.763C176.03 336.695 175.991 336.632 175.93 336.602L164.382 330.906C163.545 330.493 163.015 329.641 163.015 328.707V203.234C163.015 201.37 165.014 200.187 166.648 201.086L176.1 206.282C176.1 206.282 176.1 206.282 176.1 206.282C176.1 206.282 176.1 206.282 176.1 206.282L176.1 206.282L185.677 201.716C187.304 200.94 189.184 202.126 189.184 203.929V211.753C189.184 213.608 191.165 214.791 192.798 213.912L212.974 203.049C213.768 202.621 214.263 201.792 214.263 200.89V164.896C214.263 163.058 212.314 161.873 210.682 162.72L195.537 170.578L176.908 179.932C176.211 180.282 175.389 180.28 174.694 179.926L163.059 173.997C163.032 173.983 163.015 173.955 163.015 173.924Z" fill="#F5F5F5"/>
<path fill-rule="evenodd" clip-rule="evenodd" d="M69.1426 129.006C69.1426 127.138 71.1476 125.956 72.7818 126.861L84.0375 133.09C84.1558 133.156 84.3048 133.105 84.3583 132.981C84.4116 132.857 84.5596 132.806 84.6778 132.87L108.816 146.013C108.837 146.024 108.863 146.009 108.863 145.985C108.863 145.961 108.888 145.946 108.909 145.957L133.04 158.486C133.853 158.908 134.362 159.747 134.362 160.663V237.482C134.362 237.521 134.384 237.557 134.419 237.574C134.469 237.599 134.49 237.658 134.468 237.708L134.388 237.891C134.371 237.931 134.362 237.974 134.362 238.017V337.556C134.362 339.396 132.413 340.58 130.781 339.732L110.185 329.039C109.373 328.617 108.863 327.778 108.863 326.863V252.338C108.863 251.439 108.371 250.611 107.58 250.183L96.3016 244.064C94.6679 243.178 92.6806 244.36 92.6806 246.219V316.837C92.6806 318.705 90.6756 319.887 89.0414 318.982L70.4071 308.669C69.6268 308.237 69.1426 307.416 69.1426 306.524V129.006ZM105.313 222.992C106.943 223.809 108.863 222.623 108.863 220.8V172.634C108.863 171.735 108.37 170.908 107.58 170.479L96.3011 164.364C94.6674 163.478 92.6806 164.661 92.6806 166.519V215.15C92.6806 216.078 93.2045 216.926 94.0342 217.342L105.313 222.992Z" fill="#F5F5F5"/>
<path fill-rule="evenodd" clip-rule="evenodd" d="M0 93.2011C0 91.335 2.00164 90.1529 3.63574 91.0539L23.2507 101.869C24.0329 102.3 24.5187 103.123 24.5187 104.016V179.225C24.5187 180.154 25.0432 181.003 25.8736 181.418L36.6622 186.815C38.2925 187.631 40.211 186.445 40.211 184.622V114.173C40.211 112.333 42.1612 111.149 43.7934 111.997L63.8988 122.444C64.7107 122.866 65.2201 123.704 65.2201 124.619V301.758C65.2201 303.597 63.27 304.782 61.6378 303.933L41.5324 293.487C40.7205 293.065 40.211 292.226 40.211 291.311V216.379C40.211 215.48 39.7192 214.654 38.9292 214.225L28.1407 208.366C26.5069 207.479 24.5187 208.662 24.5187 210.521V281.501C24.5187 283.376 22.501 284.557 20.8666 283.639L1.2516 272.627C0.478561 272.193 0 271.376 0 270.489V93.2011Z" fill="#F5F5F5"/>
<path fill-rule="evenodd" clip-rule="evenodd" d="M178.28 2.45533C178.28 0.595307 180.27 -0.587368 181.904 0.301652L204.419 12.553C204.438 12.5633 204.45 12.5832 204.45 12.6049C204.45 12.627 204.462 12.6473 204.482 12.6575L278.432 50.6499C278.448 50.6581 278.453 50.6782 278.444 50.6933C278.434 50.7084 278.44 50.7285 278.455 50.7367L289.672 56.5402C291.403 57.4358 291.447 59.8951 289.75 60.853L256.143 79.8237C253.995 81.036 254.78 84.3038 257.244 84.4085L336.725 87.7867C339.254 87.8941 339.981 91.2979 337.717 92.4296L304.614 108.972C304.18 109.188 303.692 109.272 303.211 109.211L222.967 99.1062C222.445 99.0404 221.915 99.1447 221.456 99.4037L205.697 108.299C204.926 108.734 204.45 109.55 204.45 110.435V159.086C204.45 160.022 203.918 160.876 203.077 161.288L181.812 171.715C180.183 172.514 178.28 171.328 178.28 169.514L178.28 95.8883L178.28 2.45533ZM208.086 79.4554C206.451 80.3563 204.45 79.1743 204.45 77.3082V43.5208C204.45 41.6938 206.376 40.5086 208.007 41.3322L239.991 57.4856C241.75 58.3741 241.795 60.8698 240.07 61.8213L208.086 79.4554Z" fill="#F5F5F5"/>
<path fill-rule="evenodd" clip-rule="evenodd" d="M173.372 2.70087C173.372 0.840851 171.382 -0.341823 169.748 0.547196L148.482 12.1188C147.693 12.5481 147.202 13.3744 147.202 14.2725V76.4336C147.202 78.3192 145.163 79.499 143.528 78.559L95.8201 51.1234C95.0595 50.686 94.5905 49.8754 94.5905 48.9979V43.6263C94.5905 41.7841 92.6349 40.5999 91.0024 41.4536L70.5544 52.1471C69.7456 52.57 69.2387 53.4071 69.2387 54.3198V67.2029C69.2387 67.274 69.2818 67.3381 69.3477 67.3649L69.4773 67.4176C69.5191 67.4346 69.5333 67.4868 69.5058 67.5226C69.4807 67.5552 69.49 67.6024 69.5255 67.6231L146.783 112.856C146.836 112.886 146.901 112.885 146.952 112.852C147.06 112.782 147.202 112.859 147.202 112.988V128.368C147.202 130.224 145.219 131.407 143.586 130.526L33.0486 70.8706C32.3275 70.4814 31.4595 70.4783 30.7355 70.8622L6.8823 83.5112C5.13062 84.44 5.1486 86.9559 6.91337 87.8597L147.132 159.668C147.175 159.69 147.202 159.734 147.202 159.782C147.202 159.83 147.229 159.874 147.272 159.896L169.807 171.379C171.438 172.21 173.372 171.025 173.372 169.194V95.7909C173.372 95.7824 173.376 95.7745 173.383 95.7699L173.385 95.7689C173.4 95.7593 173.399 95.7372 173.384 95.7283C173.376 95.7241 173.372 95.7162 173.372 95.7077V2.70087Z" fill="#F5F5F5"/>
<defs>
<linearGradient id="paint0_linear_38_366" x1="-22.5324" y1="-10.1849" x2="76.6853" y2="344.654" gradientUnits="userSpaceOnUse">
<stop offset="0.119207" stop-color="#2563EB"/>
<stop offset="0.53207" stop-color="#9333EA"/>
<stop offset="1" stop-color="#BE123C"/>
</linearGradient>
<linearGradient id="paint1_linear_38_366" x1="-18.4427" y1="114.18" x2="381.592" y2="370.133" gradientUnits="userSpaceOnUse">
<stop offset="0.119207" stop-color="#2563EB"/>
<stop offset="0.53207" stop-color="#9333EA"/>
<stop offset="1" stop-color="#BE123C"/>
</linearGradient>
</defs>
</svg>